<svg width="172" height="51" viewBox="0 0 172 51" fill="none" xmlns="http://www.w3.org/2000/svg">
<path d="M21.0476 14C8.64755 19.2 10.0474 28 10.0476 41H21.0476C21.0476 26.2 24.5474 24.5 29.0474 21.5L21.0476 14Z" fill="#FF3700" stroke="#2A2626"/>
<path d="M31.0474 41V24C37.4474 28 41.0474 34 42.0474 36.5V41H31.0474Z" fill="#FF3700"/>
<path d="M32.0474 22C31.8807 18.3333 33.4474 10.8 41.0474 10C41.8807 13.3333 41.2474 20.4 32.0474 22Z" fill="#FF3700"/>
<path d="M31.0474 41V24C37.4474 28 41.0474 34 42.0474 36.5V41H31.0474Z" stroke="#2A2626"/>
<path d="M32.0474 22C31.8807 18.3333 33.4474 10.8 41.0474 10C41.8807 13.3333 41.2474 20.4 32.0474 22Z" stroke="#2A2626"/>
<path d="M77.5523 39L69.1123 25.52C67.8856 26.8 66.5256 28.12 65.0323 29.48V39H62.4323V11.8H65.0323V26.52C67.859 23.9067 70.179 21.4133 71.9923 19.04C73.8056 16.6667 75.3656 14.2533 76.6723 11.8H79.4323C78.6056 13.3467 77.779 14.7867 76.9523 16.12C76.1256 17.4267 75.2323 18.6933 74.2723 19.92C73.3123 21.1467 72.2323 22.44 71.0323 23.8L80.7523 39H77.5523ZM98.8717 39.2C97.7783 39.2 96.8717 38.9333 96.1517 38.4C95.4317 37.84 95.005 37.1067 94.8717 36.2C93.4317 37.48 92.165 38.3333 91.0717 38.76C89.9783 39.1867 88.9517 39.4 87.9917 39.4C86.285 39.4 85.0183 38.8533 84.1917 37.76C83.3917 36.64 82.9917 35.3067 82.9917 33.76C82.9917 32.72 83.1783 31.7867 83.5517 30.96C83.9517 30.1333 84.605 29.48 85.5117 29C86.4183 28.4933 87.6583 28.24 89.2317 28.24C89.9517 28.24 90.7917 28.2933 91.7517 28.4C92.7117 28.48 93.645 28.6 94.5517 28.76V25.88C94.5517 24.1467 94.2183 22.96 93.5517 22.32C92.885 21.6533 91.845 21.32 90.4317 21.32C89.4717 21.32 88.525 21.4533 87.5917 21.72C86.6583 21.96 85.685 22.32 84.6717 22.8L83.8317 20.84C84.925 20.28 86.005 19.8533 87.0717 19.56C88.165 19.2667 89.285 19.12 90.4317 19.12C92.2183 19.12 93.565 19.4133 94.4717 20C95.405 20.56 96.045 21.32 96.3917 22.28C96.7383 23.24 96.9117 24.3067 96.9117 25.48V34.52C96.9117 35.2667 97.0317 35.8667 97.2717 36.32C97.5383 36.7733 98.045 37 98.7917 37H99.2717V39.2H98.8717ZM85.4717 33.76C85.4717 34.8267 85.7117 35.68 86.1917 36.32C86.6983 36.96 87.4183 37.28 88.3517 37.28C89.0983 37.28 89.965 37.04 90.9517 36.56C91.965 36.08 93.165 35.2133 94.5517 33.96V30.88C93.6183 30.72 92.6583 30.6 91.6717 30.52C90.7117 30.4133 89.9117 30.36 89.2717 30.36C87.9383 30.36 86.965 30.64 86.3517 31.2C85.765 31.7333 85.4717 32.5867 85.4717 33.76ZM117.336 19.52L110.456 39H108.176L101.176 19.52H103.696L106.936 28.84L109.376 36.08L111.776 28.84L114.976 19.52H117.336ZM135.429 37.84C134.336 38.4 133.189 38.8 131.989 39.04C130.816 39.28 129.749 39.4 128.789 39.4C126.069 39.4 124.043 38.6133 122.709 37.04C121.403 35.4667 120.749 33.2667 120.749 30.44V28.04C120.749 25.3467 121.416 23.1867 122.749 21.56C124.083 19.9333 126.003 19.12 128.509 19.12C130.483 19.12 132.136 19.7067 133.469 20.88C134.829 22.0533 135.509 23.8267 135.509 26.2C135.509 27.2933 135.349 28.5467 135.029 29.96H123.189V30.44C123.189 32.6267 123.629 34.3067 124.509 35.48C125.389 36.6267 126.816 37.2 128.789 37.2C129.589 37.2 130.509 37.0933 131.549 36.88C132.616 36.6667 133.643 36.3333 134.629 35.88L135.429 37.84ZM128.509 21.32C126.723 21.32 125.389 21.9067 124.509 23.08C123.629 24.2267 123.189 25.8133 123.189 27.84H132.989C133.043 27.4933 133.083 27.1733 133.109 26.88C133.136 26.56 133.149 26.2667 133.149 26C133.149 24.3467 132.683 23.16 131.749 22.44C130.843 21.6933 129.763 21.32 128.509 21.32ZM144.116 13.96H141.236V11.04H144.116V13.96ZM143.876 39H141.476V19.52H143.876V39ZM160.716 21.4C159.889 21.4 158.943 21.6 157.876 22C156.809 22.4 155.476 23.2533 153.876 24.56V39H151.476V19.52H153.756V22.32C155.303 21.04 156.663 20.1867 157.836 19.76C159.009 19.3333 160.103 19.12 161.116 19.12C162.903 19.12 164.263 19.6667 165.196 20.76C166.129 21.8533 166.596 23.4267 166.596 25.48V39H164.196V25.92C164.196 24.3467 163.903 23.2 163.316 22.48C162.756 21.76 161.889 21.4 160.716 21.4Z" fill="#FF3700"/>
</svg>
