<svg width="125" height="47" viewBox="0 0 125 47" fill="none" xmlns="http://www.w3.org/2000/svg">
<path d="M19.54 26.24C19.54 29.0933 20.6333 30.52 22.82 30.52C23.2867 30.52 23.7467 30.4667 24.2 30.36C24.6533 30.2533 25.18 30.06 25.78 29.78L26.24 30.88C25.64 31.16 25.0533 31.3667 24.48 31.5C23.9067 31.6333 23.3467 31.7 22.8 31.7C21.3067 31.7 20.16 31.2267 19.36 30.28C18.5733 29.3333 18.18 27.9867 18.18 26.24V23.16C18.18 21.4133 18.5733 20.0667 19.36 19.12C20.16 18.1733 21.3067 17.7 22.8 17.7C23.3467 17.7 23.92 17.7667 24.52 17.9C25.12 18.0333 25.6933 18.24 26.24 18.52L25.8 19.62C24.8 19.1267 23.8 18.88 22.8 18.88C20.6267 18.88 19.54 20.3067 19.54 23.16V26.24ZM35.9595 26.02V27.22C35.9595 28.6333 35.6062 29.7333 34.8995 30.52C34.1929 31.3067 33.1995 31.7 31.9195 31.7C30.6262 31.7 29.6262 31.3067 28.9195 30.52C28.2262 29.7333 27.8795 28.6333 27.8795 27.22V26.02C27.8795 24.66 28.2262 23.58 28.9195 22.78C29.6262 21.9667 30.6262 21.56 31.9195 21.56C33.2129 21.56 34.2062 21.9667 34.8995 22.78C35.6062 23.58 35.9595 24.66 35.9595 26.02ZM34.6995 26.02C34.6995 24.9533 34.4595 24.1267 33.9795 23.54C33.4995 22.9533 32.8129 22.66 31.9195 22.66C31.0262 22.66 30.3395 22.9533 29.8595 23.54C29.3795 24.1267 29.1395 24.9533 29.1395 26.02V27.22C29.1395 28.3267 29.3795 29.1667 29.8595 29.74C30.3395 30.3133 31.0262 30.6 31.9195 30.6C32.8129 30.6 33.4995 30.3133 33.9795 29.74C34.4595 29.1667 34.6995 28.3267 34.6995 27.22V26.02ZM43.8403 22.7C43.427 22.7 42.9536 22.8 42.4203 23C41.887 23.2 41.2203 23.6267 40.4203 24.28V31.5H39.2203V21.76H40.3603V23.16C41.1336 22.52 41.8136 22.0933 42.4003 21.88C42.987 21.6667 43.5336 21.56 44.0403 21.56C44.9336 21.56 45.6136 21.8333 46.0803 22.38C46.547 22.9267 46.7803 23.7133 46.7803 24.74V31.5H45.5803V24.96C45.5803 24.1733 45.4336 23.6 45.1403 23.24C44.8603 22.88 44.427 22.7 43.8403 22.7ZM55.4698 31.12C54.7365 31.5067 53.9965 31.7 53.2498 31.7C52.5832 31.7 52.0632 31.5667 51.6898 31.3C51.3165 31.02 51.0565 30.6533 50.9098 30.2C50.7632 29.7467 50.6898 29.2667 50.6898 28.76V22.82H48.9098V21.76H50.6898V18.92H51.8898V21.76H55.1898V22.82H51.8898V28.66C51.8898 29.4067 52.0032 29.9267 52.2298 30.22C52.4698 30.5 52.8565 30.64 53.3898 30.64C53.8965 30.64 54.4498 30.48 55.0498 30.16L55.4698 31.12ZM64.8127 31.6C64.266 31.6 63.8127 31.4667 63.4527 31.2C63.0927 30.92 62.8793 30.5533 62.8127 30.1C62.0927 30.74 61.4593 31.1667 60.9127 31.38C60.366 31.5933 59.8527 31.7 59.3727 31.7C58.5193 31.7 57.886 31.4267 57.4727 30.88C57.0727 30.32 56.8727 29.6533 56.8727 28.88C56.8727 28.36 56.966 27.8933 57.1527 27.48C57.3527 27.0667 57.6793 26.74 58.1327 26.5C58.586 26.2467 59.206 26.12 59.9927 26.12C60.3527 26.12 60.7727 26.1467 61.2527 26.2C61.7327 26.24 62.1993 26.3 62.6527 26.38V24.94C62.6527 24.0733 62.486 23.48 62.1527 23.16C61.8193 22.8267 61.2993 22.66 60.5927 22.66C60.1127 22.66 59.6393 22.7267 59.1727 22.86C58.706 22.98 58.2193 23.16 57.7127 23.4L57.2927 22.42C57.8393 22.14 58.3793 21.9267 58.9127 21.78C59.4593 21.6333 60.0193 21.56 60.5927 21.56C61.486 21.56 62.1593 21.7067 62.6127 22C63.0793 22.28 63.3993 22.66 63.5727 23.14C63.746 23.62 63.8327 24.1533 63.8327 24.74V29.26C63.8327 29.6333 63.8927 29.9333 64.0127 30.16C64.146 30.3867 64.3993 30.5 64.7727 30.5H65.0127V31.6H64.8127ZM58.1127 28.88C58.1127 29.4133 58.2327 29.84 58.4727 30.16C58.726 30.48 59.086 30.64 59.5527 30.64C59.926 30.64 60.3593 30.52 60.8527 30.28C61.3593 30.04 61.9593 29.6067 62.6527 28.98V27.44C62.186 27.36 61.706 27.3 61.2127 27.26C60.7327 27.2067 60.3327 27.18 60.0127 27.18C59.346 27.18 58.8593 27.32 58.5527 27.6C58.2593 27.8667 58.1127 28.2933 58.1127 28.88ZM68.3202 26.02V27.22C68.3202 28.3133 68.5268 29.1533 68.9402 29.74C69.3535 30.3133 70.0135 30.6 70.9202 30.6C71.3468 30.6 71.7802 30.5467 72.2202 30.44C72.6602 30.32 73.1068 30.1533 73.5602 29.94L73.9602 30.92C72.9468 31.44 71.9002 31.7 70.8202 31.7C69.5802 31.7 68.6402 31.3067 68.0002 30.52C67.3735 29.7333 67.0602 28.6333 67.0602 27.22V26.02C67.0602 24.62 67.3735 23.5267 68.0002 22.74C68.6402 21.9533 69.5802 21.56 70.8202 21.56C71.2868 21.56 71.7802 21.62 72.3002 21.74C72.8202 21.86 73.3135 22.04 73.7802 22.28L73.3802 23.28C72.9802 23.0933 72.5735 22.9467 72.1602 22.84C71.7468 22.72 71.3335 22.66 70.9202 22.66C70.0135 22.66 69.3535 22.9467 68.9402 23.52C68.5268 24.0933 68.3202 24.9267 68.3202 26.02ZM81.5636 31.12C80.8303 31.5067 80.0903 31.7 79.3436 31.7C78.6769 31.7 78.1569 31.5667 77.7836 31.3C77.4103 31.02 77.1503 30.6533 77.0036 30.2C76.8569 29.7467 76.7836 29.2667 76.7836 28.76V22.82H75.0036V21.76H76.7836V18.92H77.9836V21.76H81.2836V22.82H77.9836V28.66C77.9836 29.4067 78.0969 29.9267 78.3236 30.22C78.5636 30.5 78.9503 30.64 79.4836 30.64C79.9903 30.64 80.5436 30.48 81.1436 30.16L81.5636 31.12ZM88.7158 17.9H90.0758V26.62C90.0758 27.8333 90.3224 28.7867 90.8158 29.48C91.3224 30.1733 92.1091 30.52 93.1758 30.52C94.2558 30.52 95.0424 30.1733 95.5358 29.48C96.0291 28.7867 96.2758 27.8333 96.2758 26.62V17.9H97.6358V26.62C97.6358 28.2333 97.2624 29.4867 96.5158 30.38C95.7824 31.26 94.6691 31.7 93.1758 31.7C91.6824 31.7 90.5624 31.26 89.8158 30.38C89.0824 29.4867 88.7158 28.2333 88.7158 26.62V17.9ZM103.704 30.6C104.517 30.6 105.084 30.4667 105.404 30.2C105.737 29.92 105.904 29.52 105.904 29C105.904 28.56 105.77 28.2 105.504 27.92C105.25 27.64 104.77 27.4133 104.064 27.24L102.984 26.98C102.224 26.7933 101.644 26.4667 101.244 26C100.857 25.52 100.664 24.94 100.664 24.26C100.664 23.7933 100.764 23.36 100.964 22.96C101.177 22.5467 101.51 22.2133 101.964 21.96C102.43 21.6933 103.044 21.56 103.804 21.56C104.297 21.56 104.797 21.62 105.304 21.74C105.81 21.8467 106.31 22.02 106.804 22.26L106.404 23.28C105.47 22.8667 104.604 22.66 103.804 22.66C103.177 22.66 102.69 22.7867 102.344 23.04C102.01 23.2933 101.844 23.6733 101.844 24.18C101.844 24.5667 101.964 24.9133 102.204 25.22C102.457 25.5267 102.917 25.76 103.584 25.92L104.684 26.18C106.284 26.5533 107.084 27.4733 107.084 28.94C107.084 29.4467 106.984 29.9133 106.784 30.34C106.584 30.7533 106.244 31.0867 105.764 31.34C105.284 31.58 104.63 31.7 103.804 31.7C103.244 31.7 102.69 31.64 102.144 31.52C101.597 31.4 101.037 31.2133 100.464 30.96L100.784 29.94C101.317 30.1533 101.804 30.32 102.244 30.44C102.697 30.5467 103.184 30.6 103.704 30.6Z" fill="#2A2626"/>
</svg>
