<svg width="150" height="62" viewBox="0 0 150 62" fill="none" xmlns="http://www.w3.org/2000/svg">
<rect width="150" height="62" fill="#393939"/>
<path d="M21.5451 36V25.0909H22.8662V34.8281H27.9372V36H21.5451ZM33.2426 36.1705C32.4542 36.1705 31.7742 35.9964 31.2025 35.6484C30.6343 35.2969 30.1957 34.8068 29.8868 34.1783C29.5814 33.5462 29.4287 32.8111 29.4287 31.973C29.4287 31.1349 29.5814 30.3963 29.8868 29.7571C30.1957 29.1143 30.6254 28.6136 31.1758 28.255C31.7298 27.8928 32.3761 27.7116 33.1147 27.7116C33.5409 27.7116 33.9617 27.7827 34.3772 27.9247C34.7927 28.0668 35.1709 28.2976 35.5118 28.6172C35.8527 28.9332 36.1243 29.3523 36.3267 29.8743C36.5292 30.3963 36.6304 31.0391 36.6304 31.8026V32.3352H30.3236V31.2486H35.352C35.352 30.7869 35.2596 30.375 35.075 30.0128C34.8939 29.6506 34.6346 29.3647 34.2973 29.1552C33.9635 28.9457 33.5693 28.8409 33.1147 28.8409C32.614 28.8409 32.1808 28.9652 31.815 29.2138C31.4528 29.4588 31.1741 29.7784 30.9787 30.1726C30.7834 30.5668 30.6858 30.9893 30.6858 31.4403V32.1648C30.6858 32.7827 30.7923 33.3065 31.0054 33.7362C31.222 34.1623 31.5221 34.4872 31.9056 34.7109C32.2891 34.9311 32.7348 35.0412 33.2426 35.0412C33.5728 35.0412 33.8711 34.995 34.1375 34.9027C34.4074 34.8068 34.64 34.6648 34.8353 34.4766C35.0306 34.2848 35.1815 34.0469 35.288 33.7628L36.5025 34.1037C36.3747 34.5156 36.1598 34.8778 35.858 35.1903C35.5562 35.4993 35.1833 35.7408 34.7394 35.9148C34.2955 36.0852 33.7966 36.1705 33.2426 36.1705ZM40.9503 36.1918C40.4319 36.1918 39.9613 36.0941 39.5388 35.8988C39.1162 35.6999 38.7806 35.4141 38.532 35.0412C38.2834 34.6648 38.1591 34.2102 38.1591 33.6776C38.1591 33.2088 38.2515 32.8288 38.4361 32.5376C38.6208 32.2429 38.8676 32.0121 39.1765 31.8452C39.4855 31.6783 39.8264 31.554 40.1993 31.4723C40.5757 31.3871 40.9539 31.3196 41.3339 31.2699C41.831 31.206 42.2341 31.158 42.543 31.1261C42.8555 31.0906 43.0828 31.032 43.2248 30.9503C43.3704 30.8686 43.4432 30.7266 43.4432 30.5241V30.4815C43.4432 29.956 43.2994 29.5476 43.0118 29.2564C42.7277 28.9652 42.2962 28.8196 41.7174 28.8196C41.1172 28.8196 40.6467 28.951 40.3058 29.2138C39.9649 29.4766 39.7252 29.7571 39.5867 30.0554L38.3935 29.6293C38.6066 29.1321 38.8907 28.745 39.2458 28.468C39.6044 28.1875 39.9951 27.9922 40.4177 27.8821C40.8438 27.7685 41.2628 27.7116 41.6748 27.7116C41.9375 27.7116 42.2394 27.7436 42.5803 27.8075C42.9248 27.8679 43.2568 27.994 43.5764 28.1857C43.8995 28.3775 44.1677 28.6669 44.3807 29.054C44.5938 29.4411 44.7003 29.9595 44.7003 30.6094V36H43.4432V34.892H43.3793C43.2941 35.0696 43.152 35.2596 42.9532 35.462C42.7543 35.6644 42.4897 35.8366 42.1595 35.9787C41.8292 36.1207 41.4262 36.1918 40.9503 36.1918ZM41.1421 35.0625C41.6392 35.0625 42.0583 34.9648 42.3992 34.7695C42.7437 34.5742 43.0029 34.3221 43.1769 34.0131C43.3544 33.7042 43.4432 33.3793 43.4432 33.0384V31.8878C43.39 31.9517 43.2728 32.0103 43.0917 32.0636C42.9141 32.1133 42.7081 32.1577 42.4738 32.1967C42.2429 32.2322 42.0174 32.2642 41.7973 32.2926C41.5807 32.3175 41.4049 32.3388 41.2699 32.3565C40.9432 32.3991 40.6378 32.4684 40.3537 32.5643C40.0732 32.6566 39.8459 32.7969 39.6719 32.9851C39.5015 33.1697 39.4162 33.4219 39.4162 33.7415C39.4162 34.1783 39.5778 34.5085 39.901 34.7322C40.2277 34.9524 40.6414 35.0625 41.1421 35.0625ZM46.9948 36V27.8182H48.2093V29.054H48.2945C48.4437 28.6491 48.7136 28.3207 49.1042 28.0685C49.4948 27.8164 49.9351 27.6903 50.4252 27.6903C50.5175 27.6903 50.6329 27.6921 50.7714 27.6957C50.9099 27.6992 51.0147 27.7045 51.0857 27.7116V28.9901C51.0431 28.9794 50.9454 28.9634 50.7927 28.9421C50.6436 28.9173 50.4856 28.9048 50.3187 28.9048C49.9209 28.9048 49.5658 28.9883 49.2533 29.1552C48.9444 29.3185 48.6994 29.5458 48.5182 29.837C48.3407 30.1246 48.2519 30.4531 48.2519 30.8224V36H46.9948ZM53.833 31.0781V36H52.5759V27.8182H53.7903V29.0966H53.8969C54.0886 28.6811 54.3798 28.3473 54.7705 28.0952C55.1611 27.8395 55.6653 27.7116 56.2832 27.7116C56.8372 27.7116 57.322 27.8253 57.7374 28.0526C58.1529 28.2763 58.4761 28.6172 58.7069 29.0753C58.9377 29.5298 59.0531 30.1051 59.0531 30.8011V36H57.796V30.8864C57.796 30.2436 57.6291 29.7429 57.2953 29.3842C56.9615 29.022 56.5034 28.8409 55.921 28.8409C55.5198 28.8409 55.1611 28.9279 54.845 29.1019C54.5325 29.2759 54.2857 29.5298 54.1046 29.8636C53.9235 30.1974 53.833 30.6023 53.833 31.0781ZM65.7395 25.0909H67.3162L71.0236 34.1463H71.1514L74.8588 25.0909H76.4355V36H75.1997V27.7116H75.0932L71.6841 36H70.4909L67.0818 27.7116H66.9753V36H65.7395V25.0909ZM82.2376 36.1705C81.499 36.1705 80.8509 35.9947 80.2934 35.6431C79.7394 35.2915 79.3062 34.7997 78.9937 34.1676C78.6847 33.5355 78.5302 32.7969 78.5302 31.9517C78.5302 31.0994 78.6847 30.3555 78.9937 29.7198C79.3062 29.0842 79.7394 28.5906 80.2934 28.239C80.8509 27.8874 81.499 27.7116 82.2376 27.7116C82.9763 27.7116 83.6226 27.8874 84.1765 28.239C84.7341 28.5906 85.1673 29.0842 85.4763 29.7198C85.7888 30.3555 85.945 31.0994 85.945 31.9517C85.945 32.7969 85.7888 33.5355 85.4763 34.1676C85.1673 34.7997 84.7341 35.2915 84.1765 35.6431C83.6226 35.9947 82.9763 36.1705 82.2376 36.1705ZM82.2376 35.0412C82.7987 35.0412 83.2603 34.8974 83.6226 34.6097C83.9848 34.3221 84.2529 33.9439 84.4269 33.4751C84.6009 33.0064 84.6879 32.4986 84.6879 31.9517C84.6879 31.4048 84.6009 30.8952 84.4269 30.4229C84.2529 29.9506 83.9848 29.5689 83.6226 29.2777C83.2603 28.9865 82.7987 28.8409 82.2376 28.8409C81.6765 28.8409 81.2149 28.9865 80.8527 29.2777C80.4905 29.5689 80.2223 29.9506 80.0483 30.4229C79.8743 30.8952 79.7873 31.4048 79.7873 31.9517C79.7873 32.4986 79.8743 33.0064 80.0483 33.4751C80.2223 33.9439 80.4905 34.3221 80.8527 34.6097C81.2149 34.8974 81.6765 35.0412 82.2376 35.0412ZM87.8639 36V27.8182H89.0784V29.054H89.1637C89.3128 28.6491 89.5827 28.3207 89.9733 28.0685C90.3639 27.8164 90.8043 27.6903 91.2943 27.6903C91.3867 27.6903 91.5021 27.6921 91.6406 27.6957C91.7791 27.6992 91.8838 27.7045 91.9549 27.7116V28.9901C91.9122 28.9794 91.8146 28.9634 91.6619 28.9421C91.5127 28.9173 91.3547 28.9048 91.1878 28.9048C90.7901 28.9048 90.435 28.9883 90.1225 29.1552C89.8135 29.3185 89.5685 29.5458 89.3874 29.837C89.2098 30.1246 89.121 30.4531 89.121 30.8224V36H87.8639ZM96.6264 36.1705C95.838 36.1705 95.158 35.9964 94.5862 35.6484C94.0181 35.2969 93.5795 34.8068 93.2706 34.1783C92.9652 33.5462 92.8125 32.8111 92.8125 31.973C92.8125 31.1349 92.9652 30.3963 93.2706 29.7571C93.5795 29.1143 94.0092 28.6136 94.5596 28.255C95.1136 27.8928 95.7599 27.7116 96.4985 27.7116C96.9247 27.7116 97.3455 27.7827 97.761 27.9247C98.1764 28.0668 98.5546 28.2976 98.8956 28.6172C99.2365 28.9332 99.5081 29.3523 99.7105 29.8743C99.913 30.3963 100.014 31.0391 100.014 31.8026V32.3352H93.7073V31.2486H98.7358C98.7358 30.7869 98.6434 30.375 98.4588 30.0128C98.2777 29.6506 98.0184 29.3647 97.6811 29.1552C97.3473 28.9457 96.9531 28.8409 96.4985 28.8409C95.9978 28.8409 95.5646 28.9652 95.1988 29.2138C94.8366 29.4588 94.5578 29.7784 94.3625 30.1726C94.1672 30.5668 94.0696 30.9893 94.0696 31.4403V32.1648C94.0696 32.7827 94.1761 33.3065 94.3892 33.7362C94.6058 34.1623 94.9059 34.4872 95.2894 34.7109C95.6729 34.9311 96.1186 35.0412 96.6264 35.0412C96.9566 35.0412 97.2549 34.995 97.5213 34.9027C97.7911 34.8068 98.0237 34.6648 98.2191 34.4766C98.4144 34.2848 98.5653 34.0469 98.6718 33.7628L99.8863 34.1037C99.7585 34.5156 99.5436 34.8778 99.2418 35.1903C98.9399 35.4993 98.5671 35.7408 98.1232 35.9148C97.6793 36.0852 97.1804 36.1705 96.6264 36.1705Z" fill="white"/>
<path d="M124.91 38.92L131.43 32.4C132.2 31.63 132.2 30.37 131.43 29.6L124.91 23.08" stroke="white" stroke-width="1.5" stroke-miterlimit="10" stroke-linecap="round" stroke-linejoin="round"/>
</svg>
